<mxfile host="app.diagrams.net" modified="2021-07-22T03:19:32.723Z" agent="5.0 (X11; Linux x86_64) AppleWebKit/537.36 (KHTML, like Gecko) Chrome/91.0.4472.114 Safari/537.36" etag="GUekdpqVf9UT13EmlTc-" version="14.8.5" type="github">
  <diagram id="onXnLMY4q4_q7cQGftRg" name="第 1 页">
    <mxGraphModel dx="3671" dy="1580" grid="1" gridSize="10" guides="1" tooltips="1" connect="1" arrows="1" fold="1" page="1" pageScale="1" pageWidth="827" pageHeight="1169" math="0" shadow="0">
      <root>
        <mxCell id="0" />
        <mxCell id="1" parent="0" />
        <mxCell id="LDAzrrmNxZ4AJJrx8NJo-22" value="" style="rounded=1;arcSize=10;strokeWidth=3;" vertex="1" parent="1">
          <mxGeometry x="-460" y="180" width="1670" height="870" as="geometry" />
        </mxCell>
        <mxCell id="LDAzrrmNxZ4AJJrx8NJo-7" value="" style="rounded=1;arcSize=10;dashed=1;strokeColor=#F59D56;fillColor=none;gradientColor=none;dashPattern=8 4;strokeWidth=2;" vertex="1" parent="1">
          <mxGeometry x="-420" y="294.5" width="650" height="650" as="geometry" />
        </mxCell>
        <mxCell id="LDAzrrmNxZ4AJJrx8NJo-1" value="" style="rounded=1;whiteSpace=wrap;html=1;strokeWidth=2;fillWeight=4;hachureGap=8;hachureAngle=45;sketch=1;strokeColor=#666666;fontColor=#333333;fillColor=#FFD011;" vertex="1" parent="1">
          <mxGeometry x="-126" y="360" width="220" height="220" as="geometry" />
        </mxCell>
        <mxCell id="LDAzrrmNxZ4AJJrx8NJo-2" value="" style="rounded=1;whiteSpace=wrap;html=1;strokeWidth=2;fillWeight=4;hachureGap=8;hachureAngle=45;sketch=1;rotation=90;fillColor=#46B4A5;" vertex="1" parent="1">
          <mxGeometry x="-129.5" y="663.5" width="220" height="220" as="geometry" />
        </mxCell>
        <mxCell id="LDAzrrmNxZ4AJJrx8NJo-5" value="" style="outlineConnect=0;dashed=0;verticalLabelPosition=bottom;verticalAlign=top;align=center;html=1;shape=mxgraph.aws3.connect;rotation=90;strokeColor=#d6b656;fillColor=#FFD011;gradientColor=#46B4A5;gradientDirection=east;" vertex="1" parent="1">
          <mxGeometry x="-51.5" y="560" width="71" height="119" as="geometry" />
        </mxCell>
        <mxCell id="LDAzrrmNxZ4AJJrx8NJo-9" value="" style="aspect=fixed;html=1;points=[];align=center;image;fontSize=12;image=img/lib/azure2/compute/Function_Apps.svg;rotation=90;" vertex="1" parent="1">
          <mxGeometry x="-192" y="439" width="68" height="60" as="geometry" />
        </mxCell>
        <mxCell id="LDAzrrmNxZ4AJJrx8NJo-10" value="" style="rounded=1;whiteSpace=wrap;html=1;strokeWidth=2;fillWeight=4;hachureGap=8;hachureAngle=45;sketch=1;rotation=-180;strokeColor=#9673a6;fillColor=#7b1af7;" vertex="1" parent="1">
          <mxGeometry x="-290" y="359" width="98" height="220" as="geometry" />
        </mxCell>
        <mxCell id="LDAzrrmNxZ4AJJrx8NJo-13" value="" style="shape=image;imageAspect=0;aspect=fixed;verticalLabelPosition=bottom;verticalAlign=top;image=https://cdn.jsdelivr.net/gh/rjman-ljm/resources@master/assets/1626922455062-1626922455060.png;" vertex="1" parent="1">
          <mxGeometry x="-91" y="394" width="150" height="150" as="geometry" />
        </mxCell>
        <mxCell id="LDAzrrmNxZ4AJJrx8NJo-14" value="" style="shape=image;imageAspect=0;aspect=fixed;verticalLabelPosition=bottom;verticalAlign=top;fillColor=#FFFFFF;image=https://cdn.jsdelivr.net/gh/rjman-ljm/resources@master/assets/1626922566462-1626922566461.png;" vertex="1" parent="1">
          <mxGeometry x="-290" y="420" width="98" height="98" as="geometry" />
        </mxCell>
        <mxCell id="LDAzrrmNxZ4AJJrx8NJo-15" value="" style="shape=image;imageAspect=0;aspect=fixed;verticalLabelPosition=bottom;verticalAlign=top;fillColor=#FFFFFF;image=https://cdn.jsdelivr.net/gh/rjman-ljm/resources@master/assets/1626922872206-nav_liquid.png;" vertex="1" parent="1">
          <mxGeometry x="-66" y="722.75" width="100" height="100" as="geometry" />
        </mxCell>
        <mxCell id="LDAzrrmNxZ4AJJrx8NJo-18" value="" style="shape=image;imageAspect=0;aspect=fixed;verticalLabelPosition=bottom;verticalAlign=top;fillColor=#46B4A5;gradientColor=#46B4A5;image=https://cdn.jsdelivr.net/gh/rjman-ljm/resources@master/assets/1626923503218-1626923503216.png;" vertex="1" parent="1">
          <mxGeometry x="510" y="515" width="200" height="200" as="geometry" />
        </mxCell>
        <mxCell id="LDAzrrmNxZ4AJJrx8NJo-19" value="" style="shape=image;imageAspect=0;aspect=fixed;verticalLabelPosition=bottom;verticalAlign=top;fillColor=#46B4A5;gradientColor=#46B4A5;image=https://cdn.jsdelivr.net/gh/rjman-ljm/resources@master/assets/1626923540650-1626923540649.png;" vertex="1" parent="1">
          <mxGeometry x="940" y="294.5" width="200" height="200" as="geometry" />
        </mxCell>
        <mxCell id="LDAzrrmNxZ4AJJrx8NJo-21" value="" style="shape=image;imageAspect=0;aspect=fixed;verticalLabelPosition=bottom;verticalAlign=top;fillColor=#46B4A5;gradientColor=#46B4A5;image=https://cdn.jsdelivr.net/gh/rjman-ljm/resources@master/assets/1626923598269-1626923598267.png;" vertex="1" parent="1">
          <mxGeometry x="950" y="722.75" width="200" height="200" as="geometry" />
        </mxCell>
        <mxCell id="LDAzrrmNxZ4AJJrx8NJo-23" value="" style="outlineConnect=0;dashed=0;verticalLabelPosition=bottom;verticalAlign=top;align=center;html=1;shape=mxgraph.aws3.macie;fillColor=#34BBC9;gradientColor=none;pointerEvents=1;strokeWidth=3;" vertex="1" parent="1">
          <mxGeometry x="230" y="494.5" width="300" height="75.5" as="geometry" />
        </mxCell>
        <mxCell id="LDAzrrmNxZ4AJJrx8NJo-24" value="" style="outlineConnect=0;dashed=0;verticalLabelPosition=bottom;verticalAlign=top;align=center;html=1;shape=mxgraph.aws3.macie;fillColor=#34BBC9;gradientColor=none;pointerEvents=1;strokeWidth=3;rotation=30;" vertex="1" parent="1">
          <mxGeometry x="674.39" y="696" width="294" height="75.5" as="geometry" />
        </mxCell>
        <mxCell id="LDAzrrmNxZ4AJJrx8NJo-25" value="" style="outlineConnect=0;dashed=0;verticalLabelPosition=bottom;verticalAlign=top;align=center;html=1;shape=mxgraph.aws3.macie;fillColor=#34BBC9;gradientColor=none;pointerEvents=1;strokeWidth=3;rotation=-30;" vertex="1" parent="1">
          <mxGeometry x="651" y="410" width="320" height="75.5" as="geometry" />
        </mxCell>
      </root>
    </mxGraphModel>
  </diagram>
</mxfile>
